<svg xmlns="http://www.w3.org/2000/svg" enable-background="new 0 0 2000 2000" viewBox="0 0 2000 2000" id="quill-pen">
  <path fill="#3c444f" d="M1362.9095459,591.107666c247.6184082,1.4724731,320.0189209-112.7397766,333.1813965-138.3942871
	c-172.1280518-112.644104-354.8018799-90.8375549-648.9273682,76.6793213
	c-246.3842773,140.3898926-402.0233154,441.2659912-457.0856934,562.9368896
	c240.0606079-307.6219482,529.2032471-505.6405029,532.2420654-507.6831055
	c1.2387695-0.8554077,2.6121826-1.2352905,3.9901123-1.2352905c2.1851807,0,4.3240967,0.9499512,5.7020264,2.8029175
	c2.2825928,3.0406494,1.8048096,7.3635254-1.1413574,9.7865601
	C725.0986328,934.979248,382.1741333,1493.1646729,303.4545593,1626.3330078l80.0047302-58.0560303
	c15.0600281-27.0330811,192.078186-343.6343994,246.9503784-390.003418
	c54.1622925-45.7513428,96.8231812-37.1524658,103.8567505-35.2514648
	c166.5187988,9.6915283,273.0339966-108.321167,303.8222046-147.7064209
	c-111.553833,8.5043335-198.7313232-36.9147339-202.5821533-38.90979c-3.1827393-1.7108154-4.6071167-5.463623-3.3219604-8.8372192
	c1.2805176-3.3253784,4.84375-5.2252808,8.3141479-4.4180298c160.6729126,38.5774536,282.6796875-12.9223022,356.7457275-62.949646
	c53.4942627-36.1544189,90.5041504-76.727478,109.4104004-100.1021729
	c-83.9484863,27.1756592-179.2498779,8.6469727-183.666748,7.7921143c-3.6141357-0.7608643-6.0823975-4.1338501-5.6556396-7.8396606
	c0.4268799-3.6577759,3.6096191-6.4130859,7.3166504-6.2709961
	c200.2020264,7.1264038,327.4793701-121.8612061,363.8721924-164.4292603
	c-72.1639404,7.5543823-124.8554688-3.6582642-127.230957-4.1807861c-3.5632324-0.7603149-5.9385986-4.1333008-5.5582275-7.7440186
	C1356.1635742,593.8154297,1359.2489014,591.2973022,1362.9095459,591.107666z"></path>
</svg>
